REM MD5 4cd98dab665891999264d1cc5fa84144
FILE "South Park Rally (Europe, Australia).bin" BINARY
  TRACK 01 MODE2/2352
    INDEX 01 00:00:00
  TRACK 02 AUDIO
    INDEX 00 06:22:22
    INDEX 01 06:24:22
  TRACK 03 AUDIO
    INDEX 00 10:01:02
    INDEX 01 10:03:02
  TRACK 04 AUDIO
    INDEX 00 13:24:11
    INDEX 01 13:26:11
  TRACK 05 AUDIO
    INDEX 00 17:34:36
    INDEX 01 17:36:36
  TRACK 06 AUDIO
    INDEX 00 21:04:67
    INDEX 01 21:06:67
  TRACK 07 AUDIO
    INDEX 00 24:38:69
    INDEX 01 24:40:69
  TRACK 08 AUDIO
    INDEX 00 28:10:59
    INDEX 01 28:12:59
  TRACK 09 AUDIO
    INDEX 00 31:45:29
    INDEX 01 31:47:29
  TRACK 10 AUDIO
    INDEX 00 35:25:58
    INDEX 01 35:27:58
  TRACK 11 AUDIO
    INDEX 00 35:57:30
    INDEX 01 35:59:30
  TRACK 12 AUDIO
    INDEX 00 36:31:61
    INDEX 01 36:33:61
  TRACK 13 AUDIO
    INDEX 00 37:07:60
    INDEX 01 37:09:60
  TRACK 14 AUDIO
    INDEX 00 37:37:73
    INDEX 01 37:39:73
  TRACK 15 AUDIO
    INDEX 00 37:59:44
    INDEX 01 38:01:44
  TRACK 16 AUDIO
    INDEX 00 38:27:03
    INDEX 01 38:29:03
  TRACK 17 AUDIO
    INDEX 00 39:14:54
    INDEX 01 39:16:54
  TRACK 18 AUDIO
    INDEX 00 39:45:67
    INDEX 01 39:47:67
  TRACK 19 AUDIO
    INDEX 00 40:13:48
    INDEX 01 40:15:48
  TRACK 20 AUDIO
    INDEX 00 40:44:49
    INDEX 01 40:46:49
  TRACK 21 AUDIO
    INDEX 00 41:05:26
    INDEX 01 41:07:26
  TRACK 22 AUDIO
    INDEX 00 41:20:05
    INDEX 01 41:22:05
  TRACK 23 AUDIO
    INDEX 00 41:42:26
    INDEX 01 41:44:26
  TRACK 24 AUDIO
    INDEX 00 41:50:26
    INDEX 01 41:52:26
  TRACK 25 AUDIO
    INDEX 00 42:13:45
    INDEX 01 42:15:45
  TRACK 26 AUDIO
    INDEX 00 42:39:49
    INDEX 01 42:41:49
  TRACK 27 AUDIO
    INDEX 00 42:48:47
    INDEX 01 42:50:47
  TRACK 28 AUDIO
    INDEX 00 42:56:09
    INDEX 01 42:58:09
  TRACK 29 AUDIO
    INDEX 00 43:03:15
    INDEX 01 43:05:15
  TRACK 30 AUDIO
    INDEX 00 43:10:68
    INDEX 01 43:12:68
  TRACK 31 AUDIO
    INDEX 00 43:19:43
    INDEX 01 43:21:43
  TRACK 32 AUDIO
    INDEX 00 43:26:37
    INDEX 01 43:28:37
  TRACK 33 AUDIO
    INDEX 00 43:32:16
    INDEX 01 43:34:16
  TRACK 34 AUDIO
    INDEX 00 43:40:26
    INDEX 01 43:42:26
  TRACK 35 AUDIO
    INDEX 00 43:47:08
    INDEX 01 43:49:08
  TRACK 36 AUDIO
    INDEX 00 43:52:19
    INDEX 01 43:54:19
  TRACK 37 AUDIO
    INDEX 00 43:58:15
    INDEX 01 44:00:15
  TRACK 38 AUDIO
    INDEX 00 44:06:48
    INDEX 01 44:08:48
  TRACK 39 AUDIO
    INDEX 00 44:13:14
    INDEX 01 44:15:14
  TRACK 40 AUDIO
    INDEX 00 44:21:27
    INDEX 01 44:23:27
  TRACK 41 AUDIO
    INDEX 00 44:29:64
    INDEX 01 44:31:64
  TRACK 42 AUDIO
    INDEX 00 44:38:71
    INDEX 01 44:40:71
  TRACK 43 AUDIO
    INDEX 00 44:47:09
    INDEX 01 44:49:09
  TRACK 44 AUDIO
    INDEX 00 44:55:71
    INDEX 01 44:57:71
  TRACK 45 AUDIO
    INDEX 00 45:03:61
    INDEX 01 45:05:61
  TRACK 46 AUDIO
    INDEX 00 45:12:23
    INDEX 01 45:14:23
  TRACK 47 AUDIO
    INDEX 00 45:20:01
    INDEX 01 45:22:01
  TRACK 48 AUDIO
    INDEX 00 45:27:57
    INDEX 01 45:29:57
  TRACK 49 AUDIO
    INDEX 00 45:36:15
    INDEX 01 45:38:15
  TRACK 50 AUDIO
    INDEX 00 45:46:72
    INDEX 01 45:48:72
  TRACK 51 AUDIO
    INDEX 00 45:54:28
    INDEX 01 45:56:28
  TRACK 52 AUDIO
    INDEX 00 46:02:58
    INDEX 01 46:04:58
  TRACK 53 AUDIO
    INDEX 00 46:11:13
    INDEX 01 46:13:13
  TRACK 54 AUDIO
    INDEX 00 46:19:35
    INDEX 01 46:21:35
  TRACK 55 AUDIO
    INDEX 00 46:27:10
    INDEX 01 46:29:10
  TRACK 56 AUDIO
    INDEX 00 46:36:44
    INDEX 01 46:38:44
  TRACK 57 AUDIO
    INDEX 00 46:44:49
    INDEX 01 46:46:49
  TRACK 58 AUDIO
    INDEX 00 46:52:52
    INDEX 01 46:54:52
  TRACK 59 AUDIO
    INDEX 00 47:01:18
    INDEX 01 47:03:18
  TRACK 60 AUDIO
    INDEX 00 47:09:61
    INDEX 01 47:11:61
  TRACK 61 AUDIO
    INDEX 00 47:32:67
    INDEX 01 47:34:67
  TRACK 62 AUDIO
    INDEX 00 47:41:23
    INDEX 01 47:43:23
  TRACK 63 AUDIO
    INDEX 00 47:49:25
    INDEX 01 47:51:25
  TRACK 64 AUDIO
    INDEX 00 47:56:54
    INDEX 01 47:58:54
  TRACK 65 AUDIO
    INDEX 00 48:04:51
    INDEX 01 48:06:51
  TRACK 66 AUDIO
    INDEX 00 48:14:30
    INDEX 01 48:16:30
  TRACK 67 AUDIO
    INDEX 00 48:21:59
    INDEX 01 48:23:59
  TRACK 68 AUDIO
    INDEX 00 48:31:39
    INDEX 01 48:33:39
  TRACK 69 AUDIO
    INDEX 00 48:41:29
    INDEX 01 48:43:29
  TRACK 70 AUDIO
    INDEX 00 48:49:72
    INDEX 01 48:51:72
  TRACK 71 AUDIO
    INDEX 00 48:58:10
    INDEX 01 49:00:10
  TRACK 72 AUDIO
    INDEX 00 49:06:64
    INDEX 01 49:08:64
  TRACK 73 AUDIO
    INDEX 00 49:15:08
    INDEX 01 49:17:08
  TRACK 74 AUDIO
    INDEX 00 49:25:05
    INDEX 01 49:27:05
  TRACK 75 AUDIO
    INDEX 00 49:33:68
    INDEX 01 49:35:68
  TRACK 76 AUDIO
    INDEX 00 52:35:68
    INDEX 01 52:37:68
REM LEADOUT 55:37:68
